<svg width="153" height="145" viewBox="0 0 153 145" fill="none" xmlns="http://www.w3.org/2000/svg">
<path fill-rule="evenodd" clip-rule="evenodd" d="M76.4835 145C34.2428 145 0 112.541 0 72.5C0 32.4594 34.2428 0 76.4835 0C118.724 0 152.967 32.4594 152.967 72.5C152.967 112.541 118.724 145 76.4835 145ZM127.933 106.276C134.949 96.6907 139.061 85.0506 139.061 72.5C139.061 39.7395 111.044 13.1818 76.4835 13.1818C41.9229 13.1818 13.9061 39.7395 13.9061 72.5C13.9061 85.0506 18.018 96.6908 25.0345 106.276C32.8566 96.4821 51.2334 92.2761 76.4531 92.2727C60.8987 92.2592 48.6713 81.893 48.6713 59.3182C48.6713 44.5266 59.6509 32.9546 76.4835 32.9546C93.2695 32.9546 104.296 45.6195 104.296 60.6364C104.296 82.2377 91.9224 92.2595 76.5142 92.2727C101.734 92.2761 120.11 96.4821 127.933 106.276ZM117.956 116.921C115.921 109.985 101.302 105.455 76.4835 105.455C51.6654 105.455 37.0458 109.985 35.0108 116.921C46.0521 126.191 60.5745 131.818 76.4835 131.818C92.3925 131.818 106.915 126.191 117.956 116.921ZM62.5774 59.3182C62.5774 74.2747 68.2665 79.0909 76.4835 79.0909C84.6722 79.0909 90.3896 74.4667 90.3896 60.6364C90.3896 52.4005 84.9361 46.1364 76.4835 46.1364C67.6792 46.1364 62.5774 51.5134 62.5774 59.3182Z" fill="#CFCFCF"/>
</svg>
