<svg width="153" height="145" viewBox="0 0 153 145" fill="none" xmlns="http://www.w3.org/2000/svg">
<path fill-rule="evenodd" clip-rule="evenodd" d="M0 72.5C0 112.541 34.2428 145 76.4835 145C118.724 145 152.967 112.541 152.967 72.5C152.967 32.4594 118.724 0 76.4835 0C34.2428 0 0 32.4594 0 72.5ZM139.061 72.5C139.061 105.261 111.044 131.818 76.4835 131.818C41.923 131.818 13.9061 105.261 13.9061 72.5C13.9061 39.7395 41.923 13.1818 76.4835 13.1818C111.044 13.1818 139.061 39.7395 139.061 72.5ZM69.5305 46.1364V59.3182H83.4366V46.1364C83.4366 42.4963 80.3236 39.5455 76.4835 39.5455C72.6434 39.5455 69.5305 42.4963 69.5305 46.1364ZM97.3427 59.3182V46.1364C97.3427 35.2162 88.0037 26.3636 76.4835 26.3636C64.9633 26.3636 55.6244 35.2162 55.6244 46.1364V59.3182C47.9443 59.3182 41.7183 65.2199 41.7183 72.5V98.8636C41.7183 106.144 47.9443 112.045 55.6244 112.045H97.3427C105.023 112.045 111.249 106.144 111.249 98.8636V72.5C111.249 65.2199 105.023 59.3182 97.3427 59.3182ZM55.6244 72.5V98.8636H97.3427V72.5H55.6244ZM69.5305 85.6819C69.5305 89.3219 72.6434 92.2728 76.4835 92.2728C80.3236 92.2728 83.4366 89.3219 83.4366 85.6819C83.4366 82.0418 80.3236 79.091 76.4835 79.091C72.6434 79.091 69.5305 82.0418 69.5305 85.6819Z" fill="#CFCFCF"/>
</svg>
